<?xml version="1.0" encoding="utf-8"?>
<!-- Generator: Adobe Illustrator 25.0.0, SVG Export Plug-In . SVG Version: 6.00 Build 0)  -->
<svg version="1.1" id="Vrstva_1" xmlns="http://www.w3.org/2000/svg" xmlns:xlink="http://www.w3.org/1999/xlink" x="0px" y="0px"
	 viewBox="0 0 2000 333" style="enable-background:new 0 0 2000 333;" xml:space="preserve">
<style type="text/css">
	.st0{fill:#9D9D9C;}
	.st1{fill:#FFFFFF;}
	.st2{fill:#6DC1AC;}
	.st3{fill:#ED6A34;}
	.st4{fill:#E50051;}
	.st5{fill:#EA5297;}
	.st6{fill:#585FA8;}
</style>
<g>
	<g>
		<rect y="-0.1" class="st0" width="333.4" height="333.4"/>
		<path class="st1" d="M177.6,123.9v73.5H127L177.6,123.9z M226.4,197.4h-14.1V85.7c0-5.9-1.8-10-5.3-12.9
			c-3.5-2.9-7.6-4.7-12.3-4.7c-2.9,0-5.9,0.6-8.2,1.8c-2.9,1.2-5.3,3.5-7.1,5.9L94.7,196.9c-2.9,4.1-4.1,8.2-4.1,12.3
			c0,4.1,1.2,7.6,4.1,10.6c2.9,2.9,6.5,4.1,11.8,4.1h71.7v21.8c0,5.9,1.8,10,4.7,12.9c2.9,2.9,7.1,4.7,12.3,4.7
			c5.3,0,9.4-1.8,12.3-4.7c2.9-2.9,4.7-7.6,4.7-12.9v-21.8h14.1c11.2,0,16.5-4.7,16.5-13.5c0-4.1-1.2-7.6-4.1-10
			C235.8,198.6,231.7,197.4,226.4,197.4"/>
	</g>
	<rect x="333.4" y="-0.1" class="st2" width="333.4" height="333.4"/>
	<path class="st1" d="M511.6,265.1c11.8,0,23.5-1.8,34.1-5.3s20-8.8,28.2-15.3c2.4-1.8,4.1-3.5,4.7-5.9c1.2-2.4,1.2-4.7,1.2-7.1
		c0-4.1-1.2-7.6-3.5-10c-2.4-2.9-4.7-4.1-7.6-4.1c-1.8,0-4.1,0.6-5.9,1.2c-1.8,0.6-3.5,1.8-5.3,2.9c-8.2,5.9-15.9,9.4-22.3,11.8
		c-6.5,2.4-14.1,3.5-21.8,3.5c-18.8,0-33.5-5.9-42.9-17.6c-10-11.8-14.7-29.4-14.7-52.3s4.7-40.6,14.7-52.3s24.1-17.6,42.9-17.6
		c8.2,0,15.9,1.2,22.3,3.5c6.5,2.4,14.1,6.5,21.8,12.3c4.1,2.4,7.6,4.1,11.2,4.1c2.9,0,5.9-1.2,7.6-4.1c2.4-2.9,3.5-5.9,3.5-10
		c0-2.9-0.6-5.3-1.2-7.6c-1.2-1.8-2.4-4.1-4.7-5.9c-8.2-6.5-17.6-11.8-28.2-15.3c-10.6-3.5-21.8-5.3-34.1-5.3
		c-18.8,0-34.7,4.1-48.8,11.8c-14.1,8.2-24.7,19.4-32.3,34.1c-7.6,14.7-11.2,32.3-11.2,52.3s3.5,37.6,11.2,52.3
		c7.6,14.7,18.2,26.5,32.3,34.7C476.9,261,493.4,265.1,511.6,265.1"/>
	<g>
		<rect x="666.9" y="-0.1" class="st3" width="333.4" height="333.4"/>
		<path class="st1" d="M833.3,109.2l35.9,81.2h-71.7L833.3,109.2z M927.4,242.1L851.5,79.8c-1.8-3.5-4.1-6.5-7.6-8.2
			c-3.5-1.8-7.1-2.9-10.6-2.9c-4.1,0-7.6,1.2-10.6,2.9c-3.5,1.8-5.9,4.7-7.6,8.2l-75.3,162.3c-1.2,2.4-1.8,4.7-1.8,7.1
			c0,4.1,1.8,7.6,5.3,10.6c3.5,2.9,7.1,4.1,11.8,4.1c2.9,0,5.9-0.6,8.2-2.4c2.4-1.8,4.7-4.1,5.9-7.1l16.5-36.5h96.4l16.5,36.5
			c1.2,3.5,3.5,5.9,5.9,7.1c2.4,1.8,5.3,2.4,8.2,2.4c4.1,0,8.2-1.2,11.8-4.1c3.5-2.9,5.3-6.5,5.3-10.6
			C929.1,246.8,928.6,244.5,927.4,242.1"/>
	</g>
	<g>
		<rect x="1000.3" y="-0.1" class="st4" width="333.4" height="333.4"/>
		<path class="st1" d="M1243.8,68.7c-6.5,0-12.3,4.1-15.9,11.8l-60.6,115.8l-60.6-115.8c-4.1-7.6-9.4-11.8-16.5-11.8
			c-5.3,0-9.4,1.8-12.3,4.7c-2.9,2.9-4.7,7.6-4.7,12.9V248c0,5.3,1.2,8.8,4.1,11.8s6.5,4.1,11.2,4.1s8.2-1.8,11.2-4.7
			c2.9-2.9,4.1-7.1,4.1-11.8V136.3l46.5,86.4c2.4,4.1,4.7,7.1,7.1,8.8c2.4,1.8,5.3,2.9,8.8,2.9c3.5,0,6.5-1.2,8.8-2.9
			c2.4-1.8,4.7-4.7,7.1-8.8l46.5-88.2v112.9c0,5.3,1.2,8.8,4.1,11.8s6.5,4.1,11.2,4.1c4.7,0,8.8-1.2,11.8-4.1s4.1-7.1,4.1-11.8V85.7
			c0-5.3-1.8-9.4-4.7-12.9C1252.6,69.8,1248.5,68.7,1243.8,68.7"/>
	</g>
	<g>
		<rect x="1666.6" y="-0.1" class="st5" width="333.4" height="333.4"/>
		<path class="st1" d="M1834.2,265.1c14.7,0,27.6-2.4,39.4-7.1c11.2-4.7,20-11.8,26.5-20c6.5-8.8,9.4-18.8,9.4-30
			c0-10.6-2.9-18.8-8.2-25.9c-5.3-7.1-12.9-12.3-23.5-17.1c-10-4.7-23.5-8.2-39.4-12.3c-15.3-3.5-25.9-7.1-32.3-11.2
			c-6.5-4.1-9.4-10-9.4-17.1c0-8.8,3.5-15.9,10.6-21.2c7.1-5.3,17.1-7.6,29.4-7.6c10,0,18.8,1.2,25.9,4.1
			c7.1,2.4,14.1,6.5,21.8,12.3c2.4,1.2,4.7,2.4,5.9,2.9c1.8,0.6,3.5,0.6,5.3,0.6c2.9,0,5.9-1.2,8.2-4.1c2.4-2.9,3.5-5.9,3.5-10
			c0-2.9-0.6-5.3-1.8-7.1c-1.2-1.8-2.9-4.1-5.3-5.9c-16.5-14.1-37.6-20.6-63.5-20.6c-14.1,0-27.1,2.4-38.2,7.6
			c-11.2,5.3-20,11.8-26.5,21.2c-6.5,8.8-9.4,18.8-9.4,30.6c0,11.2,2.4,20,7.6,27.1c5.3,7.1,12.9,12.9,22.9,17.6
			c10,4.7,22.9,8.8,38.8,11.8c15.3,3.5,26.5,7.1,32.9,10.6c6.5,3.5,10,8.8,10,15.9c0,8.8-3.5,15.9-10.6,20.6
			c-7.1,4.7-17.1,7.1-30.6,7.1c-10.6,0-20-1.2-28.2-4.1c-8.8-2.4-17.1-6.5-24.7-12.3c-4.1-2.4-7.6-4.1-11.2-4.1
			c-2.9,0-5.9,1.2-8.2,4.1s-3.5,5.9-3.5,10c0,5.9,2.4,10,6.5,12.9c7.6,6.5,18.2,11.2,30.6,15.3
			C1807.1,263.3,1820.1,265.1,1834.2,265.1"/>
	</g>
	<rect x="1333.7" y="-0.1" class="st6" width="333.4" height="333.4"/>
	<path class="st1" d="M1460.7,159.8V96.3h44.7c24.1,0,36.5,10.6,36.5,31.8s-12.3,31.8-36.5,31.8H1460.7z M1443.1,263.3
		c5.3,0,10-1.8,12.9-4.7c2.9-2.9,4.7-7.6,4.7-12.9v-58.8h48.8c20.6,0,36.5-5.3,48.2-15.3c11.8-10.6,17.1-24.7,17.1-43.5
		c0-18.8-5.9-32.9-17.1-43.5c-11.8-10-27.6-15.3-48.2-15.3h-67c-5.3,0-9.4,1.2-12.3,4.1c-2.9,2.9-4.7,7.1-4.7,12.3v160
		c0,5.3,1.8,10,4.7,12.9C1433.1,262.1,1437.8,263.3,1443.1,263.3"/>
</g>
</svg>
